<?xml version="1.0" standalone="no"?>
<!DOCTYPE svg PUBLIC "-//W3C//DTD SVG 20010904//EN"
 "http://www.w3.org/TR/2001/REC-SVG-20010904/DTD/svg10.dtd">
<svg version="1.0" xmlns="http://www.w3.org/2000/svg"
 width="512.000000pt" height="512.000000pt" viewBox="0 0 512.000000 512.000000"
 preserveAspectRatio="xMidYMid meet">

<g transform="translate(0.000000,512.000000) scale(0.100000,-0.100000)"
fill="#000000" stroke="none">
<path d="M3842 4900 c-225 -41 -430 -209 -523 -428 l-27 -65 -84 -2 c-90 -2
-166 -28 -235 -81 -76 -58 -132 -190 -118 -280 l6 -44 -134 0 c-121 0 -137 -2
-161 -21 -34 -27 -35 -71 -1 -104 l24 -25 1070 0 c642 0 1080 4 1094 9 58 22
93 93 76 155 -19 69 -170 184 -267 202 -29 6 -33 10 -27 28 13 46 17 184 6
236 -39 183 -192 337 -396 400 -80 24 -225 34 -303 20z m226 -155 c195 -46
321 -180 330 -351 3 -60 0 -81 -23 -135 -36 -87 -38 -95 -31 -124 8 -32 57
-55 115 -55 47 0 140 -33 173 -60 23 -19 11 -19 -799 -20 l-822 0 -6 44 c-14
91 42 172 137 201 67 20 94 19 147 -5 82 -38 112 -19 141 88 32 115 74 189
154 267 140 139 308 191 484 150z"/>
<path d="M2735 3347 c-55 -19 -64 -24 -292 -168 l-202 -129 -160 114 c-180
128 -229 151 -316 150 -83 -1 -128 -23 -309 -153 -85 -61 -161 -114 -169 -117
-9 -3 -89 41 -188 102 -220 137 -247 147 -330 124 -43 -12 -726 -432 -752
-462 -24 -28 -21 -65 8 -93 45 -46 17 -60 497 238 147 91 276 168 287 172 11
3 33 -1 48 -9 15 -8 280 -170 587 -360 389 -240 568 -346 588 -346 42 0 70 33
66 78 -3 35 -9 41 -96 98 -51 34 -94 63 -97 66 -3 2 189 127 426 278 462 293
475 299 549 267 19 -8 145 -114 279 -236 134 -122 251 -221 260 -222 73 -5
300 50 438 105 50 20 103 36 118 36 22 0 141 -91 532 -405 535 -429 533 -428
584 -387 35 29 30 76 -12 116 -60 58 -993 801 -1022 814 -54 23 -126 15 -243
-29 -92 -35 -315 -99 -345 -99 -5 0 -111 93 -236 206 -160 145 -244 214 -282
232 -64 29 -158 38 -216 19z m-927 -186 c26 -8 155 -94 276 -184 17 -13 6 -21
-135 -112 -85 -54 -163 -104 -174 -111 -19 -12 -36 -4 -188 90 -151 94 -165
105 -149 118 51 44 267 191 290 198 37 11 42 11 80 1z"/>
<path d="M699 2279 c-33 -12 -49 -47 -49 -106 0 -37 -3 -44 -12 -35 -20 20
-67 14 -93 -13 -46 -45 -33 -82 46 -136 l59 -40 0 -55 c0 -65 0 -65 -90 -4
-71 48 -109 52 -139 14 -27 -35 -27 -69 2 -97 12 -12 68 -52 124 -87 100 -63
103 -66 103 -102 l0 -37 -300 -3 c-293 -3 -300 -3 -321 -25 -27 -27 -29 -75
-4 -103 17 -19 32 -20 369 -22 l351 -3 -70 -39 c-297 -166 -624 -398 -663
-472 -25 -47 12 -104 68 -104 16 0 54 24 110 71 245 205 559 392 864 513 l89
36 391 -1 c258 0 386 -3 376 -10 -8 -5 -64 -37 -125 -70 -413 -227 -787 -561
-1018 -911 l-52 -78 -328 0 c-212 0 -335 -4 -348 -11 -48 -25 -44 -105 7 -128
18 -8 688 -11 2525 -11 l2500 0 24 25 c30 30 32 64 4 99 l-20 26 -325 0 c-178
0 -324 3 -324 8 0 13 112 157 200 257 98 111 231 234 378 347 66 51 104 88
108 104 13 53 -37 104 -88 91 -42 -11 -260 -189 -394 -322 -137 -136 -256
-279 -339 -407 l-50 -77 -499 0 -498 -1 17 28 c88 136 341 405 505 536 214
171 526 354 787 460 l112 46 204 0 c200 0 204 0 225 23 39 41 23 96 -32 117
-17 6 -139 10 -312 10 l-284 0 0 35 c0 34 4 38 103 101 56 37 112 75 125 87
46 43 16 127 -45 127 -16 0 -61 -21 -105 -50 l-78 -49 0 58 c0 58 1 59 43 86
69 45 87 66 87 100 0 57 -60 92 -111 65 -18 -10 -19 -7 -19 44 0 68 -22 99
-70 99 -50 0 -80 -40 -80 -106 0 -40 -3 -48 -12 -39 -35 35 -118 -10 -118 -64
0 -29 37 -68 94 -99 35 -19 36 -21 36 -77 0 -32 -2 -58 -5 -58 -3 0 -36 20
-75 45 -39 25 -82 45 -96 45 -30 0 -74 -41 -74 -70 0 -39 18 -56 135 -131 113
-73 115 -75 115 -111 l0 -38 -535 0 -535 0 1 38 c0 36 3 39 95 97 158 99 180
130 133 189 -30 38 -68 34 -139 -14 -90 -61 -90 -61 -90 4 l0 55 59 40 c79 54
92 91 46 136 -26 27 -73 33 -93 13 -9 -9 -12 -2 -12 35 0 61 -16 94 -52 106
-23 8 -37 7 -58 -4 -34 -17 -40 -32 -40 -96 0 -46 -1 -49 -19 -39 -64 34 -131
-27 -105 -95 4 -9 33 -34 65 -56 l59 -40 0 -59 0 -60 -76 50 c-44 29 -88 50
-104 50 -39 0 -72 -39 -68 -81 3 -31 14 -41 126 -117 117 -79 122 -84 122
-117 l0 -35 -535 0 -535 0 0 38 c0 36 3 39 104 105 58 38 112 77 122 88 25 28
22 78 -5 101 -36 28 -70 22 -143 -27 -37 -25 -72 -45 -78 -45 -5 0 -10 23 -10
53 l0 53 57 40 c72 49 90 81 69 123 -18 35 -45 45 -92 36 l-34 -6 0 54 c0 63
-22 90 -71 90 -43 0 -68 -30 -75 -90 l-7 -51 -36 5 c-48 7 -84 -21 -84 -65 0
-37 20 -62 80 -100 43 -27 43 -28 43 -84 0 -32 -2 -58 -5 -58 -3 0 -36 20 -73
45 -88 59 -140 58 -163 -2 -18 -47 4 -73 126 -153 112 -73 115 -76 115 -112
l0 -38 -535 0 -535 0 0 35 c0 34 5 38 108 106 59 39 115 78 125 86 41 38 3
123 -55 123 -14 0 -60 -22 -102 -50 l-76 -50 0 60 0 60 55 35 c30 19 59 44 65
54 35 67 -34 136 -101 101 -18 -10 -19 -7 -19 39 0 64 -6 79 -41 96 -15 8 -29
15 -31 14 -2 0 -15 -5 -29 -10z m2391 -856 c0 -5 -42 -29 -93 -55 -413 -212
-801 -555 -1059 -935 l-49 -73 -495 0 -496 0 20 31 c89 141 329 394 512 540
222 177 520 351 790 460 l95 39 388 0 c213 0 387 -3 387 -7z m1180 3 c0 -2
-55 -34 -121 -70 -422 -231 -799 -568 -1034 -924 l-48 -72 -493 0 c-272 0
-494 4 -494 8 0 5 25 41 55 82 297 397 730 720 1260 941 l90 38 393 0 c215 1
392 -1 392 -3z"/>
</g>
</svg>
